<svg version="1.1" id="Layer_1" xmlns="http://www.w3.org/2000/svg" xmlns:xlink="http://www.w3.org/1999/xlink" x="0px" y="0px"
	 viewBox="-220.5 -188 473.2 409.4" style="enable-background:new -220.5 -188 473.2 409.4;" xml:space="preserve">
<path class="red" d="M-220.5-12.1c138.9,0,277.7,0,417.2,0c0,1.5,0,3.3,0,5.1c0,56.7,0,113.4,0.1,170c0,3.9,0.4,7.9,1.3,11.7
	c0.6,2.3,2,4.8,3.8,6.3c1.5,1.2,4.6,2,6.1,1.3c1.8-0.9,3.7-3.6,3.8-5.5c0.4-7.7,0.2-15.4,0.2-23.5c13.8,0,27,0,40.7,0
	c0.3,14.8-2.6,28.8-9.1,42c-8.1,16.3-21.6,24.5-39.5,25.9c-13.3,1-23.9-4-32.6-13.9c-11.2-12.8-16.3-28.2-19.1-44.6
	c-0.6-3.4-0.8-6.9-0.9-10.3c-0.7-19.1-1.4-38.2-2.1-57.2c0-1.2-0.4-2.5-0.7-3.7c-1.7-5.3-5-8.5-8.6-8.2c-3.4,0.3-7.6,5-8.3,9.4
	c-0.2,1.1-0.1,2.2-0.1,3.3c0,33.3,0,66.6,0,99.9c0,7.2,0,14.5,0,21.8c-35.7,0-71.8,0-108.1,0c0-33.9,0-67.2,0-101
	c-47.3,0-94.4,0-142,0c0,33.1,0,66,0,99.3c-34.3,0-67.9,0-102.2,0C-220.5,140.2-220.5,64.5-220.5-12.1z"/>
<path class="blue" d="M196.7-29.3c-139.8,0-278.7,0-417.8,0c0-8.8-0.3-17.4,0.1-26c0.4-9.3,0.9-18.6,2.6-27.7c1.9-10.1,4.9-20.1,8-30
	c4.3-13.8,13.6-24.4,23.4-34.5c4.7-4.8,10.2-9.2,16.1-12.3c23.8-12.2,49.3-19.5,75.7-24.2c31.5-5.6,63.3-6.3,95.1-5.4
	c31.5,0.9,62.9,4,93.6,10.9c14.4,3.2,28.5,7.9,42.3,13.2c20.5,7.8,34.2,23.5,42.6,43.2c5.4,12.7,9.6,25.9,13.5,39.2
	c2,6.9,2.5,14.2,3.1,21.4C195.9-50.8,196.2-40.3,196.7-29.3z M-43.4-140.9c-0.3-0.1-0.7-0.2-1-0.4c0.1,0.3,0.3,0.7,0.4,1
	c0.2,1.2,0.4,2.5,0.7,3.6c2.9,8.5,5.7,17,8.8,25.4c1,2.8,0.6,4.5-1.9,6.4c-7.9,6-15.6,12.2-23.4,18.4c-1,0.8-1.6,1.9-3,3.5
	c2.3,0.2,3.6,0.4,4.8,0.4c9-0.2,18-0.3,26.9-0.8c3.4-0.2,4.8,1.1,5.7,4.1c1.5,4.8,3.3,9.5,5,14.3c2,5.5,4.1,10.9,6.1,16.3
	c0.4,0,0.8-0.1,1.3-0.1c2.1-6,4.2-12.1,6.4-18.1c2-5.1,2.7-12.1,6.4-14.8c3.9-2.8,10.9-1.5,16.5-1.6c6.4-0.2,12.8,0,19.1,0
	c0.2-0.5,0.3-0.9,0.5-1.4C26-92.3,16-99.8,6.2-107.2c3.9-11.5,7.7-22.6,11.5-33.8c-0.5-0.3-0.9-0.6-1.4-0.9C6-135-4.3-128-14.7-121
	c-2.2-1.5-4.2-3-6.3-4.4C-28.4-130.6-35.9-135.8-43.4-140.9z M-102.8-142.8c-1.9,1.1-3.8,2.1-5.6,3.3c-8.3,5.9-16.6,11.8-24.7,17.6
	c-10.1-7.2-19.8-14.1-29.5-21c-0.3,0.3-0.7,0.5-1,0.8c0.4,1.4,0.6,2.9,1.1,4.3c2.8,8.5,5.4,17.1,8.4,25.6c1.2,3.3,0.4,5.2-2.2,7.2
	c-7.5,5.7-15,11.5-22.5,17.3c-1.7,1.3-3.4,2.5-5,3.7c0.4,0.4,0.8,0.8,1.2,1.2c12.2,0,24.4,0,36.8,0c4.3,12,8.6,24,12.9,36
	c1.6-1.4,2.1-2.7,2.6-4c3.2-9.6,6.5-19.1,9.5-28.7c0.9-2.9,2.3-3.9,5.3-3.8c9.9,0.2,19.9,0.1,29.8,0c1.3,0,2.6-0.2,3.8-0.4
	c0.1-0.4,0.2-0.8,0.4-1.2c-10.2-7.7-20.5-15.5-30.9-23.3c0.8-2.3,1.5-4.5,2.2-6.8c2.7-9,5.4-18,8.1-27.1c0-0.4,0.1-0.9,0.1-1.3
	C-102.2-143.2-102.5-143-102.8-142.8z M78.3-141.3c-0.4,0.4-0.8,0.8-1.2,1.2c3.7,10.9,7.5,21.9,11.2,32.8
	c-9.9,7.9-19.5,15.6-30.2,24.1c2.6,0.4,3.8,0.7,4.9,0.7c9.1-0.2,18.3-0.3,27.4-0.7c3.2-0.1,4.8,0.9,5.8,4.1c1.6,5.4,3.7,10.7,5.6,16
	c1.8,4.9,3.7,9.8,5.6,14.7c1.8-1.6,2.4-3,2.9-4.4c3.1-8.8,6-17.6,9.3-26.3c0.5-1.4,2.6-3.2,4.1-3.2c9.9-0.6,19.8-0.7,29.7-1.1
	c1.1,0,2.3-0.3,4.3-0.5c-1.5-1.4-2.4-2.3-3.3-3c-7.7-5.8-15.3-11.6-23.1-17.2c-2.7-2-3.5-3.8-2.2-7.1c2.6-6.7,4.9-13.6,7.3-20.5
	c1.1-3.2,2-6.4,3-9.6c-2.3,0.2-3.8,1.1-5.2,2c-6,4.1-12,8.2-18,12.2c-9.2,6.2-9.2,6.2-18.1-0.2c-2.2-1.6-4.3-3.1-6.5-4.7
	C87.2-135.1,82.7-138.2,78.3-141.3z"/>
</svg>
